<svg width="0" height="0" class="hidden">
  <symbol xmlns="http://www.w3.org/2000/svg" viewBox="0 0 162 214" id="4">
    <path d="M155.012 145.764h-19.776V6.164c0-3.955-1.757-6.152-5.42-6.152h-26.66c-3.076 0-4.834 1.318-6.885 4.394L2.962 146.057c-1.611 2.49-2.05 3.955-2.05 6.152v20.068c0 2.93 3.222 5.42 6.737 5.42h95.801v30.176c0 3.662 1.758 5.273 5.42 5.273h21.68c3.076 0 4.687-1.757 4.687-5.273v-30.322h19.483c4.541 0 6.445-2.49 6.445-7.178v-18.896c0-3.516-2.344-5.713-6.152-5.713zm-114.551.146l62.988-93.896v93.896H40.461z"></path>
  </symbol>
  <symbol xmlns="http://www.w3.org/2000/svg" viewBox="0 0 141 222" id="3">
    <path d="M102.672 102.57c16.113-7.03 26.514-23.73 26.514-44.824 0-33.984-25.049-56.982-62.403-56.982-21.386 0-43.506 11.865-54.639 29.297-1.904 3.076-1.61 5.712 1.026 7.03l15.967 12.891c2.49 1.758 5.127 1.319 7.031-1.172 6.445-9.375 18.604-16.113 30.469-16.113 17.87 0 31.054 11.865 31.054 28.125 0 16.406-13.183 28.565-30.761 28.565H53.6c-3.37 0-5.42 2.344-5.42 5.86v16.845c0 3.515 2.197 5.566 5.86 5.566h14.794c23.877 0 39.99 15.381 39.99 36.182 0 20.654-17.285 36.181-40.43 36.181-17.138 0-35.449-7.47-42.92-19.775-1.757-2.344-4.687-2.49-7.324-.586L2.77 182.111c-2.93 1.612-3.077 6.006.585 10.254 12.598 17.432 37.061 29.59 66.358 29.59 41.601 0 70.898-26.807 70.898-65.625 0-26.66-15.088-47.168-37.939-53.76z"></path>
  </symbol>
  <symbol xmlns="http://www.w3.org/2000/svg" viewBox="0 0 144 218" id="2">
    <path d="M136.535 184.895H51.721l56.25-52.149c19.189-17.432 30.468-41.016 30.468-62.695 0-41.895-26.367-69.14-69.873-69.14-25.048 0-48.779 15.234-63.134 40.722-1.905 3.369-1.319 6.299 1.611 7.617l18.31 12.158c3.077 1.904 5.713 1.172 7.325-1.904 8.203-15.967 21.68-25.635 35.888-25.635 22.998 0 36.914 13.623 36.914 36.182 0 12.011-8.056 27.246-21.24 40.429L2.063 190.9C.89 192.072.157 194.416.157 197.346v14.795c0 3.515 2.637 5.713 7.178 5.713h129.492c3.955 0 6.592-2.198 6.592-5.86v-20.801c0-3.955-2.637-6.298-6.885-6.298z"></path>
  </symbol>
  <symbol xmlns="http://www.w3.org/2000/svg" viewBox="0 0 75 216" id="1">
    <path d="M69 .693H52.74c-2.197 0-5.86.44-10.986 3.077L4.4 28.525C2.057 30.137.738 32.627.738 36.143v21.533c0 3.955 2.783 6.152 7.178 3.955l35.01-21.24v167.724c0 4.248 2.783 7.031 7.031 7.031h17.578c4.395 0 7.324-2.783 7.324-7.324V7.139C74.86 2.89 72.81.693 69 .693z"></path>
  </symbol>
</svg>