<?xml version="1.0" encoding="utf-8"?><svg width="440" height="147" fill="none" xmlns="http://www.w3.org/2000/svg" viewBox="0 0 440 147"><path d="M12.92 109.111H5.205a2.604 2.604 0 01-2.602-2.602V85.423a2.604 2.604 0 012.602-2.603h7.717a2.604 2.604 0 012.602 2.603v21.086c-.09 1.436-1.167 2.602-2.602 2.602zM81.744 109.291h-7.717a2.604 2.604 0 01-2.602-2.602V85.602A2.604 2.604 0 0174.027 83h7.717a2.604 2.604 0 012.602 2.602v21.087a2.604 2.604 0 01-2.602 2.602z" fill="#020100"/><path d="M56.799 98.882H7.179C3.23 98.882 0 95.652 0 91.704v-63.17C0 12.742 12.742 0 28.534 0 44.147 0 56.8 12.652 56.8 28.265v70.617z" fill="#FF910D"/><path d="M98.882 70.618c0 15.613-12.652 28.264-28.265 28.264H7.178C3.23 98.882 0 95.652 0 91.704v-49.62h70.348c15.793 0 28.534 12.741 28.534 28.534z" fill="#FF910D"/><path d="M67.746 11.934H86.41c.628 0 1.077.449 1.077 1.077v18.664" stroke="#000" stroke-width="5.384" stroke-miterlimit="10" stroke-linecap="round" stroke-linejoin="round"/><path d="M49.082 69.63H30.42c-.628 0-1.077-.448-1.077-1.077V49.89" stroke="#fff" stroke-width="5.384" stroke-miterlimit="10" stroke-linecap="round" stroke-linejoin="round"/><path d="M157.296 48.095c.269.27.449.539.449.987 0 .27-.09.449-.18.718l-20.817 48.903-.18.269-10.678 25.394c-.358.987-1.076 1.525-2.063 1.525h-8.973c-1.346 0-2.064-.449-2.064-1.436 0-.269.09-.718.269-1.346l10.947-26.56-20.01-46.928c-.089-.27-.179-.449-.179-.718 0-.36.179-.718.449-.987.269-.27.628-.36.987-.36h10.498c.538 0 .987.18 1.346.45.359.269.718.628.808 1.076l12.831 34.456 12.742-34.456c.179-.448.448-.807.807-1.077.359-.269.897-.448 1.346-.448h10.498c.539.18.898.359 1.167.538zM209.518 49.8c3.859 2.422 6.82 5.742 8.973 9.96 2.154 4.217 3.231 8.973 3.231 14.177 0 5.204-1.077 9.96-3.231 14.177-2.153 4.218-5.114 7.538-8.973 9.96-3.858 2.423-8.075 3.589-12.831 3.589-3.589 0-6.909-.717-9.96-2.153-3.051-1.436-5.653-3.5-7.806-6.191l.089 30.956c0 .539-.179.987-.448 1.257-.27.269-.718.448-1.257.448h-9.69c-.449 0-.898-.179-1.167-.448-.269-.359-.448-.718-.448-1.257V49.53c0-.538.179-.987.448-1.256.269-.359.718-.448 1.167-.448h7.986c.807 0 1.256.358 1.346.987l1.076 6.998a23.189 23.189 0 017.986-7.088c3.231-1.705 6.73-2.513 10.588-2.513 4.846 0 9.153 1.167 12.921 3.59zm-9.601 37.148a14.997 14.997 0 005.384-5.474c1.346-2.333 1.974-4.755 1.974-7.447 0-2.782-.628-5.294-1.974-7.627a14.998 14.998 0 00-5.384-5.474 14.313 14.313 0 00-7.447-2.064c-2.782 0-5.294.718-7.627 2.064s-4.128 3.14-5.474 5.474c-1.346 2.333-2.064 4.845-2.064 7.627 0 2.781.718 5.204 2.064 7.537 1.346 2.243 3.231 4.038 5.563 5.384 2.333 1.346 4.936 1.974 7.717 1.974 2.513.09 5.025-.628 7.268-1.974zM267.304 48.634c3.59 1.615 6.371 4.038 8.435 7.088 1.974 3.051 2.961 6.64 2.961 10.858v31.854a2.2 2.2 0 01-.449 1.346c-.269.359-.717.448-1.256.448h-7.358c-.359 0-.628-.089-.897-.269a1.392 1.392 0 01-.538-.718l-.898-5.294c-1.884 2.423-4.307 4.397-7.357 5.833-3.051 1.435-6.73 2.153-11.037 2.153-3.769 0-7.089-.718-9.96-2.064-2.961-1.346-5.205-3.32-6.82-5.832-1.615-2.512-2.422-5.474-2.422-8.883 0-4.935 1.615-8.614 4.755-11.127 3.141-2.512 7.627-3.768 13.37-3.768l17.856-.09v-2.513c0-3.14-.987-5.742-3.051-7.627-2.063-1.884-4.666-2.781-7.896-2.781-2.512 0-5.025.269-7.627.897-2.602.628-4.845 1.436-6.64 2.423a3.417 3.417 0 01-1.525.359c-.808 0-1.346-.27-1.615-.898l-2.872-5.653a2.395 2.395 0 01-.269-1.076c0-.987.628-1.795 1.795-2.423 2.333-1.436 5.294-2.602 8.703-3.41a43.992 43.992 0 0110.14-1.166c4.666-.09 8.883.718 12.472 2.333zm-8.165 41.275c1.974-.987 3.589-2.333 4.756-3.948 1.166-1.705 1.794-3.589 1.794-5.653v-1.346h-16.151c-2.154 0-3.769.449-4.935 1.436-1.167.987-1.795 2.243-1.795 3.948 0 2.064.987 3.769 2.871 5.025 1.885 1.346 4.218 1.974 6.999 1.974 2.244 0 4.487-.538 6.461-1.436zM336.127 49.89c3.859 2.422 6.82 5.742 8.973 9.96 2.154 4.217 3.231 8.973 3.231 14.177 0 5.204-1.077 9.96-3.231 14.177-2.153 4.218-5.204 7.538-8.973 9.96-3.858 2.423-8.165 3.589-12.921 3.589-3.858 0-7.358-.807-10.588-2.512-3.23-1.705-5.832-4.038-7.986-7.178l-1.166 7.088c0 .27-.18.539-.449.718-.269.18-.538.269-.897.269h-7.986c-.539 0-.898-.18-1.257-.448a2.205 2.205 0 01-.448-1.346V13.549c0-.538.179-.987.448-1.256.27-.36.718-.449 1.257-.449h9.691c.538 0 .897.18 1.256.449.269.359.448.718.448 1.256l-.179 41.186c2.153-2.692 4.756-4.756 7.806-6.281 3.051-1.526 6.371-2.243 10.05-2.243 4.756 0 9.063 1.256 12.921 3.679zm-7.896 37.148a15.004 15.004 0 005.384-5.474c1.346-2.333 1.974-4.845 1.974-7.627 0-2.692-.628-5.204-1.974-7.537a15.004 15.004 0 00-5.384-5.474c-2.243-1.346-4.756-1.974-7.448-1.974-2.781 0-5.294.628-7.716 1.974-2.333 1.346-4.218 3.14-5.564 5.384-1.345 2.243-2.063 4.756-2.063 7.537 0 2.782.718 5.294 2.063 7.628 1.346 2.332 3.141 4.127 5.474 5.473s4.845 2.064 7.627 2.064c2.782.09 5.294-.628 7.627-1.974zM372.917 13.37v85.153c0 1.077-.539 1.615-1.705 1.615h-9.781c-1.076 0-1.615-.538-1.615-1.615V13.37c0-1.077.539-1.616 1.615-1.616h9.781c1.166.09 1.705.539 1.705 1.616zM387.184 60.029c2.512-4.217 5.922-7.627 10.229-10.05 4.307-2.512 9.062-3.679 14.177-3.679s9.87 1.257 14.177 3.68c4.307 2.512 7.717 5.832 10.23 10.049 2.512 4.217 3.768 8.883 3.768 13.998 0 5.114-1.256 9.69-3.768 13.998-2.513 4.307-5.923 7.627-10.23 10.05-4.307 2.422-8.973 3.678-14.087 3.678-5.115 0-9.871-1.256-14.178-3.679-4.307-2.422-7.716-5.832-10.229-10.05-2.512-4.217-3.768-8.883-3.768-13.997-.09-5.025 1.166-9.691 3.679-13.998zm11.395 21.535c1.346 2.333 3.141 4.128 5.474 5.474s4.845 2.063 7.537 2.063 5.294-.718 7.627-2.064c2.333-1.345 4.128-3.14 5.474-5.473 1.346-2.243 1.974-4.756 1.974-7.537 0-2.782-.628-5.294-1.974-7.627s-3.141-4.128-5.474-5.474-4.845-2.064-7.627-2.064-5.294.718-7.537 2.064c-2.333 1.346-4.128 3.14-5.474 5.474-1.346 2.333-1.974 4.845-1.974 7.627 0 2.692.628 5.204 1.974 7.537zM308.85 125.891a11.103 11.103 0 013.679 3.948 11.5 11.5 0 011.346 5.474c0 .358-.09.717-.359.897-.269.269-.539.359-.897.359h-16.78c.18 1.346.628 2.512 1.436 3.589a8.017 8.017 0 002.871 2.602c1.167.628 2.423.987 3.769.987 1.077 0 2.153-.179 3.14-.628.987-.359 1.885-.987 2.782-1.705.09-.09.269-.179.359-.179.09 0 .179.089.359.179l.359.539c.179.179.359.358.448.628.09.089.18.269.18.359 0 .089-.09.269-.18.359-1.076.897-2.153 1.615-3.409 2.153a9.723 9.723 0 01-3.948.808c-1.975 0-3.859-.539-5.474-1.526a10.896 10.896 0 01-4.038-4.038c-.987-1.705-1.436-3.499-1.436-5.473 0-1.974.449-3.859 1.346-5.474.898-1.705 2.154-2.961 3.769-3.948 1.615-.987 3.41-1.435 5.384-1.435 1.974 0 3.769.538 5.294 1.525zm-9.063 2.153c-1.166.629-2.064 1.526-2.781 2.603-.718 1.076-1.077 2.333-1.257 3.679h15.165c-.09-1.346-.539-2.603-1.167-3.679a7.238 7.238 0 00-6.281-3.59 7.276 7.276 0 00-3.679.987zM322.758 127.864a2.849 2.849 0 00-1.167 2.333c0 .628.18 1.077.449 1.526.359.448.897.807 1.615 1.166.718.359 1.795.628 3.051.987 2.512.539 4.307 1.346 5.474 2.423 1.166.987 1.794 2.423 1.794 4.217 0 1.974-.718 3.41-2.064 4.397-1.435.987-3.409 1.525-5.922 1.525-1.615 0-3.23-.269-4.666-.807-1.435-.539-2.602-1.167-3.41-1.795-.179-.179-.269-.269-.269-.448 0-.09 0-.18.09-.359l.718-1.257a.494.494 0 01.448-.269c.09 0 .27 0 .359.09a15.128 15.128 0 002.962 1.525c1.166.449 2.422.718 3.678.718 1.705 0 3.051-.269 3.949-.807.897-.539 1.345-1.436 1.345-2.603 0-.987-.448-1.794-1.256-2.422-.807-.628-2.153-1.167-4.038-1.615-1.704-.449-3.05-.898-4.037-1.436-.987-.538-1.795-1.167-2.333-1.974-.539-.808-.808-1.705-.808-2.871 0-1.077.269-1.974.808-2.872.538-.897 1.346-1.525 2.422-2.064 1.077-.448 2.244-.717 3.679-.717 1.256 0 2.423.179 3.679.538 1.256.359 2.243.808 3.141 1.346.269.179.359.359.359.538 0 .09 0 .269-.09.359l-.718 1.256a.493.493 0 01-.449.27c-.089 0-.179 0-.269-.09-.807-.449-1.705-.897-2.692-1.167-.987-.269-1.974-.448-2.961-.448-1.077-.09-2.064.179-2.871.807zM337.923 125.442c0-.18 0-.269.089-.359.09-.09.18-.09.359-.09h2.692v-7.268c0-.269.18-.449.449-.538l1.795-.718h.179c.269 0 .449.179.449.538v8.076h5.922c.179 0 .269 0 .359.09.089.089.089.179.089.359v1.704c0 .359-.179.539-.538.539h-5.922v17.587c0 .179-.09.269-.09.359-.09.089-.179.09-.359.09h-1.794c-.359 0-.539-.18-.539-.539v-17.677h-2.692c-.359 0-.448-.179-.448-.538v-1.615zM371.392 125.442v19.83c0 .359-.18.538-.539.538h-1.435c-.09 0-.269 0-.359-.089-.09-.09-.18-.18-.18-.27l-.269-3.14c-.718 1.256-1.794 2.243-3.14 2.961a9.017 9.017 0 01-4.307 1.077c-1.616 0-3.141-.359-4.397-1.167-1.256-.807-2.333-1.884-3.051-3.23s-1.077-2.871-1.077-4.576v-11.934c0-.18.09-.269.18-.359.089-.09.269-.18.359-.18h1.704c.18 0 .27.09.359.18.09.09.09.179.09.359v11.934c0 1.166.269 2.243.897 3.14.539.987 1.346 1.705 2.333 2.244a6.642 6.642 0 003.231.807c1.166 0 2.333-.269 3.32-.897.987-.539 1.794-1.346 2.422-2.333.628-.987.898-2.064.898-3.23v-11.755c0-.359.179-.538.538-.538h1.705c.538.089.718.269.718.628zM398.58 110.457c.089.09.179.18.179.359v34.456c0 .359-.179.539-.538.539h-1.436c-.269 0-.449-.09-.449-.359l-.269-4.397c-.897 1.615-2.153 2.961-3.679 3.858-1.525.987-3.32 1.436-5.204 1.436-1.974 0-3.769-.449-5.294-1.436a10.607 10.607 0 01-3.769-3.948c-.897-1.705-1.346-3.499-1.346-5.563 0-2.064.449-3.858 1.346-5.563.898-1.705 2.154-2.961 3.769-3.948 1.615-.987 3.32-1.436 5.294-1.436 1.884 0 3.589.449 5.204 1.346a9.887 9.887 0 013.679 3.769v-18.664c0-.359.18-.539.539-.539h1.704s.18 0 .27.09zm-6.82 32.034a7.47 7.47 0 002.961-3.051c.718-1.256 1.077-2.692 1.077-4.217 0-1.526-.359-2.872-1.077-4.128a7.47 7.47 0 00-3.051-2.961c-1.256-.718-2.691-1.077-4.217-1.077-1.525 0-2.871.359-4.127 1.077a7.82 7.82 0 00-2.962 2.961c-.717 1.256-1.076 2.602-1.076 4.128 0 1.525.359 2.871 1.076 4.217.718 1.256 1.705 2.243 2.962 3.051 1.256.718 2.602 1.076 4.127 1.076 1.615.09 3.051-.269 4.307-1.076zM405.758 116.379c-.359-.358-.539-.807-.539-1.345 0-.539.18-.988.539-1.436.359-.359.807-.539 1.346-.539.538 0 .987.18 1.346.539.358.359.538.807.538 1.346 0 .538-.18.987-.538 1.346-.359.359-.808.538-1.346.538-.539.18-.987 0-1.346-.449zm2.781 8.973v19.92c0 .359-.179.539-.538.539h-1.795c-.359 0-.538-.18-.538-.539v-19.92c0-.358.179-.448.538-.448h1.795c.359 0 .538.179.538.448zM415.269 129.838c.987-1.704 2.333-2.961 4.038-3.948 1.705-.987 3.589-1.435 5.563-1.435 1.974 0 3.859.448 5.563 1.435 1.705.987 3.051 2.333 3.949 3.948a11.4 11.4 0 011.435 5.564c0 1.974-.448 3.858-1.435 5.473-.987 1.705-2.333 2.961-3.949 3.948-1.704.987-3.499 1.436-5.563 1.436-2.064 0-3.858-.449-5.563-1.436a11.356 11.356 0 01-4.038-3.948c-.987-1.705-1.436-3.499-1.436-5.473-.089-2.064.449-3.859 1.436-5.564zm2.423 9.691a7.825 7.825 0 002.961 2.961c1.256.718 2.602 1.077 4.127 1.077 1.526 0 2.872-.359 4.128-1.077a7.825 7.825 0 002.961-2.961c.718-1.256 1.077-2.602 1.077-4.127 0-1.526-.359-2.872-1.077-4.128a7.825 7.825 0 00-2.961-2.961c-1.256-.718-2.602-1.077-4.128-1.077-1.525 0-2.871.359-4.127 1.077a7.825 7.825 0 00-2.961 2.961 8.335 8.335 0 00-1.077 4.128c0 1.435.359 2.871 1.077 4.127z" fill="#000"/></svg>