<svg width="440" height="147" viewBox="0 0 440 147" fill="none" xmlns="http://www.w3.org/2000/svg">
<path d="M12.9207 109.111H5.20391C3.76823 109.111 2.60175 107.945 2.60175 106.509V85.4227C2.60175 83.987 3.76823 82.8205 5.20391 82.8205H12.9207C14.3563 82.8205 15.5228 83.987 15.5228 85.4227V106.509C15.4331 107.945 14.3563 109.111 12.9207 109.111Z" fill="#020100"/>
<path d="M81.7436 109.291H74.0268C72.5911 109.291 71.4247 108.124 71.4247 106.689V85.6022C71.4247 84.1665 72.5911 83 74.0268 83H81.7436C83.1793 83 84.3457 84.1665 84.3457 85.6022V106.689C84.3457 108.124 83.1793 109.291 81.7436 109.291Z" fill="#020100"/>
<path d="M56.7989 98.8822H7.17838C3.23027 98.8822 0 95.6519 0 91.7038V28.5341C0 12.7416 12.7416 0 28.5341 0C44.147 0 56.7989 12.6519 56.7989 28.2649V98.8822Z" fill="#FF910D"/>
<path d="M98.8821 70.6175C98.8821 86.2305 86.2302 98.8824 70.6173 98.8824H7.17832C3.23021 98.8824 -6.10352e-05 95.6521 -6.10352e-05 91.704V42.0834H70.3481C86.1405 42.0834 98.8821 54.8251 98.8821 70.6175Z" fill="#FF910D"/>
<path d="M67.7463 11.9343H86.4101C87.0382 11.9343 87.4869 12.383 87.4869 13.0111V31.6749" stroke="black" stroke-width="5.38379" stroke-miterlimit="10" stroke-linecap="round" stroke-linejoin="round"/>
<path d="M49.0824 69.6302H30.4186C29.7905 69.6302 29.3419 69.1816 29.3419 68.5534V49.8896" stroke="white" stroke-width="5.38379" stroke-miterlimit="10" stroke-linecap="round" stroke-linejoin="round"/>
<path d="M157.296 48.0952C157.565 48.3644 157.745 48.6336 157.745 49.0822C157.745 49.3514 157.655 49.5309 157.565 49.8001L136.748 98.7028L136.568 98.972L125.89 124.366C125.532 125.353 124.814 125.891 123.827 125.891H114.854C113.508 125.891 112.79 125.442 112.79 124.455C112.79 124.186 112.88 123.737 113.059 123.109L124.006 96.5493L103.996 49.6206C103.907 49.3514 103.817 49.172 103.817 48.9028C103.817 48.5439 103.996 48.1849 104.266 47.9157C104.535 47.6466 104.894 47.5568 105.253 47.5568H115.751C116.289 47.5568 116.738 47.7363 117.097 48.0055C117.456 48.2747 117.815 48.6336 117.905 49.0822L130.736 83.5385L143.478 49.0822C143.657 48.6336 143.926 48.2747 144.285 48.0055C144.644 47.7363 145.182 47.5568 145.631 47.5568H156.129C156.668 47.7363 157.027 47.9157 157.296 48.0952Z" fill="black"/>
<path d="M209.518 49.7996C213.377 52.2223 216.338 55.5423 218.491 59.7596C220.645 63.9769 221.722 68.7326 221.722 73.9369C221.722 79.1413 220.645 83.8969 218.491 88.1142C216.338 92.3315 213.377 95.6516 209.518 98.0743C205.66 100.497 201.443 101.663 196.687 101.663C193.098 101.663 189.778 100.946 186.727 99.5099C183.676 98.0743 181.074 96.0105 178.921 93.3186L179.01 124.275C179.01 124.814 178.831 125.262 178.562 125.532C178.292 125.801 177.844 125.98 177.305 125.98H167.615C167.166 125.98 166.717 125.801 166.448 125.532C166.179 125.173 166 124.814 166 124.275V49.5305C166 48.9921 166.179 48.5434 166.448 48.2742C166.717 47.9153 167.166 47.8256 167.615 47.8256H175.601C176.408 47.8256 176.857 48.1845 176.947 48.8126L178.023 55.8115C180.177 52.7607 182.869 50.4277 186.009 48.7229C189.24 47.018 192.739 46.2104 196.597 46.2104C201.443 46.2104 205.75 47.3769 209.518 49.7996ZM199.917 86.9478C202.161 85.6018 203.955 83.8072 205.301 81.4742C206.647 79.1413 207.275 76.7186 207.275 74.0267C207.275 71.2451 206.647 68.7326 205.301 66.3996C203.955 64.0667 202.161 62.2721 199.917 60.9261C197.674 59.5802 195.162 58.8623 192.47 58.8623C189.688 58.8623 187.176 59.5802 184.843 60.9261C182.51 62.2721 180.715 64.0667 179.369 66.3996C178.023 68.7326 177.305 71.2451 177.305 74.0267C177.305 76.8083 178.023 79.231 179.369 81.564C180.715 83.8072 182.6 85.6018 184.932 86.9478C187.265 88.2937 189.868 88.9218 192.649 88.9218C195.162 89.0115 197.674 88.2937 199.917 86.9478Z" fill="black"/>
<path d="M267.304 48.6337C270.894 50.2489 273.675 52.6716 275.739 55.7224C277.713 58.7732 278.7 62.3624 278.7 66.5797V98.4337C278.7 98.9721 278.521 99.4208 278.251 99.7797C277.982 100.139 277.534 100.228 276.995 100.228H269.637C269.278 100.228 269.009 100.139 268.74 99.9592C268.471 99.7797 268.291 99.5105 268.202 99.2413L267.304 93.9473C265.42 96.37 262.997 98.344 259.947 99.7797C256.896 101.215 253.217 101.933 248.91 101.933C245.141 101.933 241.821 101.215 238.95 99.8694C235.989 98.5235 233.745 96.5494 232.13 94.037C230.515 91.5246 229.708 88.5635 229.708 85.1537C229.708 80.2186 231.323 76.5397 234.463 74.0272C237.604 71.5148 242.09 70.2586 247.833 70.2586L265.689 70.1689V67.6564C265.689 64.5159 264.702 61.9137 262.638 60.0294C260.575 58.1451 257.972 57.2478 254.742 57.2478C252.23 57.2478 249.717 57.517 247.115 58.1451C244.513 58.7732 242.27 59.5808 240.475 60.5678C239.937 60.837 239.398 60.9267 238.95 60.9267C238.142 60.9267 237.604 60.6575 237.335 60.0294L234.463 54.3764C234.284 54.0175 234.194 53.6586 234.194 53.2997C234.194 52.3126 234.822 51.5051 235.989 50.877C238.322 49.4413 241.283 48.2748 244.692 47.4672C248.102 46.6597 251.512 46.3007 254.832 46.3007C259.498 46.211 263.715 47.0186 267.304 48.6337ZM259.139 89.9094C261.113 88.9224 262.728 87.5764 263.895 85.9613C265.061 84.2564 265.689 82.3721 265.689 80.3083V78.9624H249.538C247.384 78.9624 245.769 79.411 244.603 80.3981C243.436 81.3851 242.808 82.6413 242.808 84.3462C242.808 86.41 243.795 88.1148 245.679 89.371C247.564 90.717 249.897 91.3451 252.678 91.3451C254.922 91.3451 257.165 90.8067 259.139 89.9094Z" fill="black"/>
<path d="M336.127 49.8896C339.986 52.3123 342.947 55.6323 345.1 59.8496C347.254 64.0669 348.331 68.8226 348.331 74.0269C348.331 79.2312 347.254 83.9869 345.1 88.2042C342.947 92.4215 339.896 95.7415 336.127 98.1642C332.269 100.587 327.962 101.753 323.206 101.753C319.348 101.753 315.848 100.946 312.618 99.241C309.388 97.5361 306.786 95.2031 304.632 92.0626L303.466 99.1512C303.466 99.4204 303.286 99.6896 303.017 99.8691C302.748 100.049 302.479 100.138 302.12 100.138H294.134C293.595 100.138 293.236 99.9588 292.877 99.6896C292.608 99.3307 292.429 98.882 292.429 98.3437V13.549C292.429 13.0107 292.608 12.562 292.877 12.2928C293.147 11.9339 293.595 11.8442 294.134 11.8442H303.825C304.363 11.8442 304.722 12.0236 305.081 12.2928C305.35 12.6517 305.529 13.0107 305.529 13.549L305.35 54.735C307.503 52.0431 310.106 49.9793 313.156 48.4539C316.207 46.9285 319.527 46.2107 323.206 46.2107C327.962 46.2107 332.269 47.4669 336.127 49.8896ZM328.231 87.0377C330.474 85.6918 332.269 83.8972 333.615 81.5642C334.961 79.2312 335.589 76.7188 335.589 73.9372C335.589 71.2453 334.961 68.7328 333.615 66.3999C332.269 64.0669 330.474 62.2723 328.231 60.9264C325.988 59.5804 323.475 58.9523 320.783 58.9523C318.002 58.9523 315.489 59.5804 313.067 60.9264C310.734 62.2723 308.849 64.0669 307.503 66.3101C306.158 68.5534 305.44 71.0658 305.44 73.8474C305.44 76.6291 306.158 79.1415 307.503 81.4745C308.849 83.8074 310.644 85.602 312.977 86.948C315.31 88.2939 317.822 89.0118 320.604 89.0118C323.386 89.1015 325.898 88.3837 328.231 87.0377Z" fill="black"/>
<path d="M372.917 13.3695V98.5231C372.917 99.5998 372.378 100.138 371.212 100.138H361.431C360.355 100.138 359.816 99.5998 359.816 98.5231V13.3695C359.816 12.2928 360.355 11.7544 361.431 11.7544H371.212C372.378 11.8441 372.917 12.2928 372.917 13.3695Z" fill="black"/>
<path d="M387.184 60.0289C389.696 55.8116 393.106 52.4019 397.413 49.9792C401.72 47.4667 406.475 46.3002 411.59 46.3002C416.705 46.3002 421.46 47.5565 425.767 49.9792C430.074 52.4916 433.484 55.8116 435.997 60.0289C438.509 64.2462 439.765 68.9121 439.765 74.0267C439.765 79.1413 438.509 83.7175 435.997 88.0246C433.484 92.3316 430.074 95.6516 425.767 98.0743C421.46 100.497 416.794 101.753 411.68 101.753C406.565 101.753 401.809 100.497 397.502 98.0743C393.195 95.6516 389.786 92.2419 387.273 88.0246C384.761 83.8073 383.505 79.1413 383.505 74.0267C383.415 69.0019 384.671 64.3359 387.184 60.0289ZM398.579 81.564C399.925 83.897 401.72 85.6916 404.053 87.0375C406.386 88.3835 408.898 89.1013 411.59 89.1013C414.282 89.1013 416.884 88.3835 419.217 87.0375C421.55 85.6916 423.345 83.897 424.691 81.564C426.037 79.3208 426.665 76.8084 426.665 74.0267C426.665 71.2451 426.037 68.7327 424.691 66.3997C423.345 64.0667 421.55 62.2721 419.217 60.9262C416.884 59.5802 414.372 58.8624 411.59 58.8624C408.808 58.8624 406.296 59.5802 404.053 60.9262C401.72 62.2721 399.925 64.0667 398.579 66.3997C397.233 68.7327 396.605 71.2451 396.605 74.0267C396.605 76.7186 397.233 79.2311 398.579 81.564Z" fill="black"/>
<path d="M308.85 125.891C310.375 126.878 311.632 128.224 312.529 129.839C313.426 131.544 313.875 133.339 313.875 135.313C313.875 135.671 313.785 136.03 313.516 136.21C313.247 136.479 312.977 136.569 312.619 136.569H295.839C296.019 137.915 296.467 139.081 297.275 140.158C297.993 141.235 298.98 142.132 300.146 142.76C301.313 143.388 302.569 143.747 303.915 143.747C304.992 143.747 306.068 143.568 307.055 143.119C308.042 142.76 308.94 142.132 309.837 141.414C309.927 141.324 310.106 141.235 310.196 141.235C310.286 141.235 310.375 141.324 310.555 141.414L310.914 141.953C311.093 142.132 311.273 142.311 311.362 142.581C311.452 142.67 311.542 142.85 311.542 142.94C311.542 143.029 311.452 143.209 311.362 143.299C310.286 144.196 309.209 144.914 307.953 145.452C306.696 145.99 305.44 146.26 304.005 146.26C302.03 146.26 300.146 145.721 298.531 144.734C296.826 143.747 295.48 142.401 294.493 140.696C293.506 138.991 293.057 137.197 293.057 135.223C293.057 133.249 293.506 131.364 294.403 129.749C295.301 128.044 296.557 126.788 298.172 125.801C299.787 124.814 301.582 124.366 303.556 124.366C305.53 124.366 307.325 124.904 308.85 125.891ZM299.787 128.044C298.621 128.673 297.723 129.57 297.006 130.647C296.288 131.723 295.929 132.98 295.749 134.326H310.914C310.824 132.98 310.375 131.723 309.747 130.647C309.119 129.57 308.222 128.673 307.145 128.044C306.068 127.416 304.812 127.057 303.466 127.057C302.12 127.057 300.864 127.416 299.787 128.044Z" fill="black"/>
<path d="M322.758 127.864C322.04 128.403 321.591 129.21 321.591 130.197C321.591 130.825 321.771 131.274 322.04 131.723C322.399 132.171 322.937 132.53 323.655 132.889C324.373 133.248 325.45 133.517 326.706 133.876C329.218 134.415 331.013 135.222 332.18 136.299C333.346 137.286 333.974 138.722 333.974 140.516C333.974 142.49 333.256 143.926 331.91 144.913C330.475 145.9 328.501 146.438 325.988 146.438C324.373 146.438 322.758 146.169 321.322 145.631C319.887 145.092 318.72 144.464 317.912 143.836C317.733 143.657 317.643 143.567 317.643 143.388C317.643 143.298 317.643 143.208 317.733 143.029L318.451 141.772C318.541 141.593 318.72 141.503 318.899 141.503C318.989 141.503 319.169 141.503 319.258 141.593C320.066 142.131 321.053 142.67 322.22 143.118C323.386 143.567 324.642 143.836 325.898 143.836C327.603 143.836 328.949 143.567 329.847 143.029C330.744 142.49 331.192 141.593 331.192 140.426C331.192 139.439 330.744 138.632 329.936 138.004C329.129 137.376 327.783 136.837 325.898 136.389C324.194 135.94 322.848 135.491 321.861 134.953C320.874 134.415 320.066 133.786 319.528 132.979C318.989 132.171 318.72 131.274 318.72 130.108C318.72 129.031 318.989 128.134 319.528 127.236C320.066 126.339 320.874 125.711 321.95 125.172C323.027 124.724 324.194 124.455 325.629 124.455C326.885 124.455 328.052 124.634 329.308 124.993C330.564 125.352 331.551 125.801 332.449 126.339C332.718 126.518 332.808 126.698 332.808 126.877C332.808 126.967 332.808 127.146 332.718 127.236L332 128.492C331.91 128.672 331.731 128.762 331.551 128.762C331.462 128.762 331.372 128.762 331.282 128.672C330.475 128.223 329.577 127.775 328.59 127.505C327.603 127.236 326.616 127.057 325.629 127.057C324.552 126.967 323.565 127.236 322.758 127.864Z" fill="black"/>
<path d="M337.923 125.442C337.923 125.262 337.923 125.173 338.012 125.083C338.102 124.993 338.192 124.993 338.371 124.993H341.063V117.725C341.063 117.456 341.243 117.276 341.512 117.187L343.307 116.469C343.307 116.469 343.396 116.469 343.486 116.469C343.755 116.469 343.935 116.648 343.935 117.007V125.083H349.857C350.036 125.083 350.126 125.083 350.216 125.173C350.305 125.262 350.305 125.352 350.305 125.532V127.236C350.305 127.595 350.126 127.775 349.767 127.775H343.845V145.362C343.845 145.541 343.755 145.631 343.755 145.721C343.665 145.81 343.576 145.811 343.396 145.811H341.602C341.243 145.811 341.063 145.631 341.063 145.272V127.595H338.371C338.012 127.595 337.923 127.416 337.923 127.057V125.442Z" fill="black"/>
<path d="M371.392 125.442V145.272C371.392 145.631 371.212 145.81 370.853 145.81H369.418C369.328 145.81 369.149 145.81 369.059 145.721C368.969 145.631 368.879 145.541 368.879 145.451L368.61 142.311C367.892 143.567 366.816 144.554 365.47 145.272C364.124 145.99 362.688 146.349 361.163 146.349C359.547 146.349 358.022 145.99 356.766 145.182C355.51 144.375 354.433 143.298 353.715 141.952C352.997 140.606 352.638 139.081 352.638 137.376V125.442C352.638 125.262 352.728 125.173 352.818 125.083C352.907 124.993 353.087 124.903 353.177 124.903H354.881C355.061 124.903 355.151 124.993 355.24 125.083C355.33 125.173 355.33 125.262 355.33 125.442V137.376C355.33 138.542 355.599 139.619 356.227 140.516C356.766 141.503 357.573 142.221 358.56 142.76C359.547 143.298 360.624 143.567 361.791 143.567C362.957 143.567 364.124 143.298 365.111 142.67C366.098 142.131 366.905 141.324 367.533 140.337C368.161 139.35 368.431 138.273 368.431 137.107V125.352C368.431 124.993 368.61 124.814 368.969 124.814H370.674C371.212 124.903 371.392 125.083 371.392 125.442Z" fill="black"/>
<path d="M398.58 110.457C398.669 110.547 398.759 110.637 398.759 110.816V145.272C398.759 145.631 398.58 145.811 398.221 145.811H396.785C396.516 145.811 396.336 145.721 396.336 145.452L396.067 141.055C395.17 142.67 393.914 144.016 392.388 144.913C390.863 145.9 389.068 146.349 387.184 146.349C385.21 146.349 383.415 145.9 381.89 144.913C380.275 143.926 379.019 142.58 378.121 140.965C377.224 139.26 376.775 137.466 376.775 135.402C376.775 133.338 377.224 131.544 378.121 129.839C379.019 128.134 380.275 126.878 381.89 125.891C383.505 124.904 385.21 124.455 387.184 124.455C389.068 124.455 390.773 124.904 392.388 125.801C393.914 126.698 395.17 127.954 396.067 129.57V110.906C396.067 110.547 396.247 110.367 396.606 110.367H398.31C398.31 110.367 398.49 110.367 398.58 110.457ZM391.76 142.491C393.016 141.773 394.003 140.786 394.721 139.44C395.439 138.184 395.798 136.748 395.798 135.223C395.798 133.697 395.439 132.351 394.721 131.095C394.003 129.839 393.016 128.852 391.67 128.134C390.414 127.416 388.979 127.057 387.453 127.057C385.928 127.057 384.582 127.416 383.326 128.134C382.069 128.852 381.082 129.839 380.364 131.095C379.647 132.351 379.288 133.697 379.288 135.223C379.288 136.748 379.647 138.094 380.364 139.44C381.082 140.696 382.069 141.683 383.326 142.491C384.582 143.209 385.928 143.567 387.453 143.567C389.068 143.657 390.504 143.298 391.76 142.491Z" fill="black"/>
<path d="M405.758 116.379C405.399 116.021 405.219 115.572 405.219 115.034C405.219 114.495 405.399 114.046 405.758 113.598C406.117 113.239 406.565 113.059 407.104 113.059C407.642 113.059 408.091 113.239 408.45 113.598C408.808 113.957 408.988 114.405 408.988 114.944C408.988 115.482 408.808 115.931 408.45 116.29C408.091 116.649 407.642 116.828 407.104 116.828C406.565 117.008 406.117 116.828 405.758 116.379ZM408.539 125.352V145.272C408.539 145.631 408.36 145.811 408.001 145.811H406.206C405.847 145.811 405.668 145.631 405.668 145.272V125.352C405.668 124.994 405.847 124.904 406.206 124.904H408.001C408.36 124.904 408.539 125.083 408.539 125.352Z" fill="black"/>
<path d="M415.269 129.838C416.256 128.134 417.602 126.877 419.307 125.89C421.012 124.903 422.896 124.455 424.87 124.455C426.844 124.455 428.729 124.903 430.433 125.89C432.138 126.877 433.484 128.223 434.382 129.838C435.279 131.454 435.817 133.338 435.817 135.402C435.817 137.376 435.369 139.26 434.382 140.875C433.395 142.58 432.049 143.836 430.433 144.823C428.729 145.81 426.934 146.259 424.87 146.259C422.806 146.259 421.012 145.81 419.307 144.823C417.602 143.836 416.256 142.49 415.269 140.875C414.282 139.17 413.833 137.376 413.833 135.402C413.744 133.338 414.282 131.543 415.269 129.838ZM417.692 139.529C418.41 140.785 419.397 141.772 420.653 142.49C421.909 143.208 423.255 143.567 424.78 143.567C426.306 143.567 427.652 143.208 428.908 142.49C430.164 141.772 431.151 140.785 431.869 139.529C432.587 138.273 432.946 136.927 432.946 135.402C432.946 133.876 432.587 132.53 431.869 131.274C431.151 130.018 430.164 129.031 428.908 128.313C427.652 127.595 426.306 127.236 424.78 127.236C423.255 127.236 421.909 127.595 420.653 128.313C419.397 129.031 418.41 130.018 417.692 131.274C416.974 132.53 416.615 133.966 416.615 135.402C416.615 136.837 416.974 138.273 417.692 139.529Z" fill="black"/>
</svg>
